<?xml version="1.0" encoding="UTF-8"?>
<!--Generator: Apple Native CoreSVG 326-->
<!DOCTYPE svg
PUBLIC "-//W3C//DTD SVG 1.1//EN"
       "http://www.w3.org/Graphics/SVG/1.1/DTD/svg11.dtd">
<svg version="1.1" xmlns="http://www.w3.org/2000/svg" xmlns:xlink="http://www.w3.org/1999/xlink" viewBox="0 0 1164 765.75">
 <g>
  <rect height="765.75" opacity="0" width="1164" x="0" y="0"/>
  <path d="M985 166.75L985 364.102C977.628 363.179 970.111 362.75 962.5 362.75C955.064 362.75 947.716 363.162 940.5 364.035L940.5 170.75C940.5 163.5 937 160.25 930.5 160.25C900.5 160.25 784 225.75 582 225.75C379.75 225.75 268.75 160.25 233.5 160.25C227 160.25 223.25 163.5 223.25 171L223.25 595.5C223.25 602.75 227 606.25 233.5 606.25C263.5 606.25 378.75 541 582 541C652.75 541 712.367 549.004 761.245 559.462C761.019 561.024 761 562.635 761 564.25C761 578.003 762.4 591.448 765.076 604.445C716.156 592.498 656.245 583 582 583C381.25 583 286.5 652 227.75 652C196.5 652 179 633 179 599.75L179 166.75C179 133.5 196.5 114.5 227.75 114.5C286.25 114.5 382 183.75 582 183.75C781.75 183.75 877.75 114.5 936 114.5C967.5 114.5 985 133.5 985 166.75Z" fill="#5d4534"/>
  <path d="M1124.25 564.25C1124.25 652.75 1050.25 725.75 962.5 725.75C874 725.75 801 653.25 801 564.25C801 475.75 874 402.5 962.5 402.5C1051.25 402.5 1124.25 475.5 1124.25 564.25ZM909.75 496.25L909.75 631.75C909.75 644 922.25 649 932.75 642.75L1043.5 577C1054 571 1053.25 557.25 1042 550.5L932.75 485.25C922.25 479 909.75 484 909.75 496.25Z" fill="#5d4534"/>
 </g>
</svg>
